<svg xmlns="http://www.w3.org/2000/svg" viewBox="0 0 720 720" role="img" aria-label="CAp UFRJ">
  <rect width="720" height="720" fill="#ffffff"/>
  <path d="M360 20C264 124 162 151 57 151c-4 181 57 386 303 547 246-161 307-366 303-547-105 0-207-27-303-131Z" fill="#00451c"/>
  <path d="M360 54C277 139 176 181 89 184c1 161 58 344 271 482 213-138 270-321 271-482-87-3-188-45-271-130Z" fill="#ffffff"/>
  <path d="M360 86C290 157 204 204 121 214c7 139 64 297 239 417 175-120 232-278 239-417-83-10-169-57-239-128Z" fill="#00451c"/>
  <text x="360" y="337" fill="#ffffff" font-family="Arial, Helvetica, sans-serif" font-size="176" font-weight="800" text-anchor="middle">CAp</text>
  <text x="360" y="493" fill="#ffffff" font-family="Arial, Helvetica, sans-serif" font-size="92" font-weight="400" letter-spacing="5" text-anchor="middle">UFRJ</text>
</svg>
